<svg class="w-40 object-cover h-auto my-2 cursor-pointer" width="3274" height="927" viewBox="0 0 3274 927" fill="none" xmlns="http://www.w3.org/2000/svg">
          <circle cx="437.543" cy="437.543" r="437.543" fill="#3A3A3C"></circle>
          <path fill-rule="evenodd" clip-rule="evenodd" d="M490.7 686.88H252.527L252.248 686.879H314.965V686.874H262.356C250.039 686.874 240.055 676.89 240.055 664.573V417.961L366.747 544.653C367.467 555.331 376.356 563.769 387.217 563.769H442.547V563.782H487.14C556.604 563.782 612.916 507.47 612.916 438.005C612.916 368.54 556.604 312.228 487.139 312.228H464.787V189.124H490.7C628.151 189.124 739.577 300.551 739.577 438.002C739.577 575.453 628.151 686.88 490.7 686.88Z" fill="white"></path>
          <path fill-rule="evenodd" clip-rule="evenodd" d="M426.398 188.215H197.173C162.687 188.215 134.73 216.172 134.73 250.657C134.73 285.143 162.687 313.1 197.173 313.1H239.983V361.973L367.544 489.534V313.1H426.398V188.215Z" fill="#4993CD"></path>
          <path d="M1030.28 276.391V215.739H1414.4V276.391H1256.46V678.209H1188.22V276.391H1030.28ZM1741 536.056H1463.01C1473.12 594.181 1518.61 629.561 1579.26 629.561C1621.59 629.561 1659.5 611.239 1679.72 581.545L1730.89 615.662C1702.46 657.992 1644.34 687.054 1579.26 687.054C1473.75 687.054 1398.57 611.239 1398.57 510.785C1398.57 410.33 1471.23 334.516 1570.42 334.516C1669.61 334.516 1742.26 403.381 1742.26 501.308C1742.26 512.048 1741.63 523.421 1741 536.056ZM1463.64 484.25H1678.45C1675.29 428.652 1632.33 391.377 1571.05 391.377C1516.08 391.377 1473.12 428.02 1463.64 484.25ZM2132.61 491.199V678.209H2066.27V495.622C2066.27 426.757 2035.94 392.64 1975.92 392.64C1918.43 392.64 1875.47 440.024 1875.47 500.676V678.209H1809.13V343.361H1875.47V397.695C1893.79 360.419 1936.12 334.516 1989.19 334.516C2078.27 334.516 2132.61 390.113 2132.61 491.199ZM2541.44 491.199V678.209H2475.1V495.622C2475.1 426.757 2444.78 392.64 2384.76 392.64C2327.27 392.64 2284.3 440.024 2284.3 500.676V678.209H2217.97V343.361H2284.3V397.695C2302.63 360.419 2344.96 334.516 2398.03 334.516C2487.11 334.516 2541.44 390.113 2541.44 491.199ZM2948.38 536.056H2670.4C2680.51 594.181 2725.99 629.561 2786.65 629.561C2828.98 629.561 2866.88 611.239 2887.1 581.545L2938.28 615.662C2909.84 657.992 2851.72 687.054 2786.65 687.054C2681.14 687.054 2605.95 611.239 2605.95 510.785C2605.95 410.33 2678.61 334.516 2777.8 334.516C2876.99 334.516 2949.65 403.381 2949.65 501.308C2949.65 512.048 2949.02 523.421 2948.38 536.056ZM2671.03 484.25H2885.84C2882.68 428.652 2839.72 391.377 2778.43 391.377C2723.47 391.377 2680.51 428.02 2671.03 484.25ZM3238.96 613.135L3255.39 665.573C3237.07 678.209 3206.11 687.054 3175.78 687.054C3095.55 687.054 3055.11 640.934 3055.11 548.06V401.485H2979.3V343.361H3055.11V251.751H3121.45V343.361H3244.65V401.485H3121.45V546.797C3121.45 601.131 3141.67 628.298 3181.47 628.298C3202.95 628.298 3221.9 623.243 3238.96 613.135Z" fill="#4993CD"></path>
          </svg>